<?xml version="1.0" standalone="no"?>
<!DOCTYPE svg PUBLIC "-//W3C//DTD SVG 20010904//EN"
 "http://www.w3.org/TR/2001/REC-SVG-20010904/DTD/svg10.dtd">
<svg version="1.0" xmlns="http://www.w3.org/2000/svg"
 width="800.000000pt" height="500.000000pt" viewBox="0 0 800.000000 500.000000"
 preserveAspectRatio="xMidYMid meet">

<g transform="translate(0.000000,500.000000) scale(0.100000,-0.100000)"
fill="#000000" stroke="none">
<path d="M2226 4698 c-20 -23 -36 -52 -36 -64 0 -13 -4 -26 -10 -29 -5 -3 -10
-24 -10 -45 0 -21 -4 -42 -10 -45 -5 -3 -10 -26 -10 -50 0 -24 -4 -47 -10 -50
-5 -3 -10 -26 -10 -49 0 -27 -6 -48 -15 -56 -11 -9 -14 -22 -10 -41 4 -17 0
-40 -9 -58 -9 -16 -16 -45 -16 -64 0 -18 -4 -37 -9 -43 -5 -5 -12 -29 -15 -54
-3 -25 -10 -72 -16 -105 -6 -33 -13 -78 -16 -100 -3 -22 -9 -49 -14 -60 -4
-11 -11 -28 -14 -37 -6 -20 -60 -25 -71 -8 -10 16 -295 12 -324 -4 -13 -7 -33
-11 -43 -8 -10 2 -26 -2 -36 -11 -9 -9 -19 -16 -22 -16 -7 0 -51 -20 -80 -36
-41 -23 -82 -57 -135 -111 -83 -85 -105 -112 -105 -129 0 -8 -7 -18 -15 -21
-8 -3 -17 -16 -21 -27 -3 -12 -12 -29 -19 -37 -23 -26 -75 -131 -75 -151 0
-10 -3 -19 -8 -19 -9 0 -32 -72 -32 -103 0 -12 -6 -31 -14 -42 -10 -15 -13
-59 -11 -190 l3 -170 33 -37 c19 -21 41 -38 49 -38 9 0 21 -5 26 -10 7 -7 76
-9 200 -7 194 5 272 12 289 28 5 5 23 9 40 9 17 0 35 4 40 8 6 5 30 15 55 22
25 8 51 18 58 23 24 19 35 -8 18 -41 -9 -17 -16 -47 -16 -66 0 -19 -4 -38 -10
-41 -5 -3 -10 -21 -10 -40 0 -19 -5 -37 -10 -40 -6 -3 -10 -24 -10 -45 0 -21
-4 -42 -10 -45 -5 -3 -10 -16 -10 -27 0 -24 -16 -78 -36 -123 -7 -16 -14 -39
-16 -50 -4 -23 -18 -23 -103 0 -46 13 -121 18 -323 22 l-262 5 0 -526 0 -526
233 0 c246 1 338 11 437 49 81 31 159 90 212 158 67 90 90 157 96 282 7 175
-28 279 -135 392 -69 73 -66 60 -32 144 22 56 49 144 49 163 0 11 5 24 10 27
6 3 10 19 10 35 0 16 5 32 10 35 6 3 10 17 10 30 0 13 4 34 9 47 5 13 17 52
26 88 9 36 21 73 26 82 5 10 9 34 9 53 0 28 4 35 19 35 11 0 23 5 26 10 3 6
15 10 26 10 20 0 51 15 81 38 9 8 21 11 27 8 5 -4 12 -2 16 4 3 5 17 10 30 10
12 0 25 7 29 15 3 8 14 15 25 15 11 0 23 5 26 10 3 6 17 10 30 10 13 0 27 5
30 10 3 6 15 10 25 10 10 0 20 4 22 8 2 5 20 12 40 15 37 6 37 5 65 -51 25
-53 53 -104 117 -212 15 -25 29 -53 33 -62 3 -10 9 -18 14 -18 5 0 9 -5 9 -10
0 -6 20 -39 45 -74 25 -36 45 -70 45 -75 0 -6 3 -11 8 -11 4 0 22 -21 40 -47
33 -49 63 -89 142 -188 87 -109 129 -170 130 -187 0 -27 38 -59 70 -60 16 -1
40 7 54 16 22 14 26 24 26 66 0 28 -4 50 -10 50 -5 0 -10 9 -10 19 0 11 -3 21
-7 23 -13 5 -63 105 -56 111 3 4 -2 9 -11 13 -9 3 -16 12 -16 20 0 8 -4 22 -9
32 -16 32 -41 94 -61 152 -6 19 -18 47 -26 63 -9 15 -13 31 -10 36 3 5 -1 14
-9 21 -8 7 -15 25 -15 41 0 15 -4 31 -10 34 -5 3 -10 21 -10 40 0 19 -4 37
-10 40 -5 3 -10 24 -10 45 0 21 -4 42 -10 45 -5 3 -10 21 -10 39 0 17 -5 37
-11 43 -6 6 -12 24 -13 40 -2 15 -8 38 -14 50 -7 12 -9 29 -6 38 4 9 -1 24
-11 34 -23 26 -17 76 10 76 24 0 85 27 85 37 0 5 11 8 25 8 13 0 39 8 57 18
18 10 53 24 78 32 25 7 50 20 57 28 6 8 16 11 22 8 5 -4 32 4 58 18 26 13 67
30 91 37 23 7 42 16 42 21 0 4 13 8 29 8 17 0 33 5 36 10 3 6 14 10 25 10 10
0 20 6 23 14 4 9 14 12 28 9 14 -4 25 0 31 11 5 9 18 16 29 16 11 0 39 9 61
20 23 11 52 20 65 20 13 0 23 5 23 10 0 6 9 10 19 10 11 0 23 5 26 10 3 6 17
10 30 10 13 0 27 5 30 10 3 6 17 10 29 10 13 0 29 7 36 15 7 9 19 14 26 11 7
-3 16 -1 19 4 4 6 15 10 25 10 10 0 25 7 34 15 8 8 24 15 35 15 11 0 36 9 56
20 20 11 47 20 60 20 14 0 25 5 25 10 0 6 8 10 18 10 10 0 27 6 37 14 11 8 24
12 30 9 7 -2 18 3 25 11 7 9 16 13 22 10 5 -3 19 1 31 8 12 8 43 21 70 29 26
7 47 17 47 21 0 4 11 8 25 8 14 0 34 5 45 10 11 6 29 15 40 20 11 6 26 10 35
10 8 0 30 9 50 20 20 11 45 20 56 20 11 0 22 7 25 15 4 8 15 15 25 15 11 0 38
8 62 19 23 10 58 24 77 31 56 20 99 40 104 49 3 5 17 9 30 9 13 0 38 9 54 21
17 11 38 21 47 21 9 0 44 13 78 29 34 16 89 39 122 51 33 13 65 29 71 36 6 8
18 14 26 14 8 0 18 4 24 8 5 4 27 14 49 21 60 19 185 81 185 92 0 5 9 9 19 9
11 0 23 5 26 10 3 6 13 10 20 10 18 0 199 82 265 119 15 9 57 27 95 41 11 4
56 25 100 46 58 28 74 40 58 42 -12 2 -31 -2 -42 -7 -11 -6 -33 -11 -50 -11
-17 0 -31 -4 -31 -10 0 -5 -13 -10 -29 -10 -17 0 -33 -4 -36 -10 -3 -5 -15
-10 -26 -10 -10 0 -28 -4 -39 -10 -11 -5 -29 -14 -40 -20 -11 -5 -29 -10 -39
-10 -11 0 -23 -4 -26 -10 -3 -5 -17 -10 -29 -10 -13 0 -29 -7 -36 -15 -7 -8
-22 -15 -34 -15 -12 0 -26 -4 -31 -8 -6 -5 -30 -15 -55 -22 -25 -8 -49 -16
-55 -20 -5 -4 -30 -12 -55 -20 -25 -7 -49 -17 -55 -22 -5 -4 -19 -8 -32 -8
-13 0 -26 -7 -29 -15 -4 -8 -14 -15 -23 -15 -9 0 -21 -4 -27 -8 -5 -4 -27 -14
-49 -21 -62 -20 -95 -35 -95 -43 0 -5 -8 -8 -18 -8 -10 0 -22 -4 -28 -8 -5 -4
-27 -14 -49 -21 -22 -7 -47 -19 -55 -26 -8 -7 -36 -18 -62 -26 -27 -7 -48 -17
-48 -21 0 -4 -9 -8 -20 -8 -11 0 -28 -4 -38 -9 -29 -15 -83 -37 -152 -62 -19
-7 -42 -18 -51 -26 -8 -7 -25 -13 -37 -13 -11 0 -24 -4 -27 -10 -3 -5 -15 -10
-26 -10 -10 0 -19 -4 -19 -10 0 -5 -11 -10 -25 -10 -13 0 -40 -9 -60 -20 -20
-11 -44 -20 -54 -20 -10 0 -24 -7 -31 -15 -7 -8 -18 -14 -24 -14 -6 1 -24 -3
-39 -9 -16 -7 -33 -12 -38 -12 -5 0 -9 -4 -9 -10 0 -5 -11 -10 -25 -10 -14 0
-34 -4 -45 -10 -11 -5 -29 -14 -40 -20 -11 -5 -29 -10 -40 -10 -11 0 -20 -4
-20 -10 0 -5 -9 -10 -20 -10 -12 0 -40 -9 -62 -20 -23 -11 -49 -20 -59 -20 -9
0 -21 -6 -27 -13 -6 -7 -34 -19 -62 -27 -27 -7 -50 -17 -50 -22 0 -4 -11 -8
-25 -8 -14 0 -34 -4 -45 -10 -11 -5 -29 -14 -40 -20 -11 -5 -28 -10 -39 -10
-10 0 -22 -7 -25 -16 -4 -10 -12 -14 -22 -10 -8 3 -35 -5 -60 -19 -25 -14 -53
-25 -64 -25 -10 0 -22 -4 -25 -10 -3 -5 -15 -10 -26 -10 -11 0 -39 -9 -61 -20
-23 -11 -49 -20 -59 -20 -9 0 -22 -6 -29 -14 -6 -8 -17 -13 -25 -10 -7 3 -16
1 -20 -5 -3 -6 -14 -11 -24 -11 -10 0 -24 -7 -31 -15 -7 -8 -21 -15 -32 -15
-10 0 -38 -9 -60 -20 -23 -11 -50 -20 -59 -20 -10 0 -21 -4 -24 -10 -3 -5 -15
-10 -26 -10 -10 0 -19 -4 -19 -10 0 -5 -8 -10 -19 -10 -24 0 -88 -27 -96 -40
-3 -5 -14 -10 -24 -10 -10 0 -33 -8 -52 -17 -49 -26 -101 -43 -111 -37 -4 3
-8 18 -8 34 0 16 -4 32 -10 35 -5 3 -10 19 -10 35 0 16 -4 32 -10 35 -5 3 -10
19 -10 35 0 16 -4 32 -10 35 -5 3 -10 18 -10 33 0 15 -7 36 -15 46 -8 11 -15
30 -15 42 0 13 -4 25 -9 28 -5 3 -12 22 -15 41 -3 19 -9 51 -12 70 -3 19 -10
38 -15 41 -5 3 -9 16 -9 29 0 13 -4 27 -10 30 -5 3 -10 20 -10 36 0 16 -7 41
-16 54 -9 14 -14 31 -11 39 3 8 -1 20 -9 27 -9 7 -13 22 -10 33 3 12 -2 30
-10 40 -8 11 -14 30 -14 42 0 13 -4 26 -10 29 -5 3 -10 19 -10 35 0 16 -4 32
-10 35 -5 3 -10 19 -10 36 0 16 -4 29 -10 29 -5 0 -10 13 -10 29 0 17 -4 33
-10 36 -5 3 -10 18 -10 33 0 15 -7 36 -15 46 -8 11 -15 30 -15 42 0 13 -4 26
-10 29 -5 3 -10 19 -10 36 0 16 -4 29 -10 29 -5 0 -10 13 -10 29 0 17 -4 33
-10 36 -5 3 -10 17 -10 30 0 13 -4 27 -10 30 -5 3 -10 24 -10 46 0 21 -4 39
-8 39 -5 0 -15 11 -22 25 -21 40 -61 34 -104 -17z m74 -333 c0 -13 5 -27 10
-30 6 -3 10 -19 10 -36 0 -16 5 -29 10 -29 6 0 10 -15 10 -32 0 -18 7 -42 15
-52 8 -11 15 -30 15 -42 0 -13 5 -26 10 -29 6 -3 10 -17 10 -30 0 -13 5 -27
10 -30 6 -3 10 -19 10 -35 0 -16 4 -31 9 -34 5 -3 12 -22 15 -41 3 -19 9 -51
12 -70 3 -19 10 -35 15 -35 5 0 9 -15 9 -34 0 -19 5 -38 10 -41 6 -3 10 -19
10 -34 0 -16 7 -34 16 -42 8 -7 13 -21 10 -32 -3 -11 2 -30 11 -43 8 -13 13
-31 10 -39 -4 -8 0 -21 8 -29 8 -8 15 -26 15 -40 0 -14 5 -28 10 -31 6 -3 10
-19 10 -35 0 -16 5 -32 10 -35 6 -3 10 -21 10 -40 0 -19 5 -37 10 -40 6 -3 10
-17 10 -31 0 -14 7 -32 15 -41 9 -8 13 -23 10 -32 -3 -9 2 -26 10 -37 21 -28
18 -43 -10 -54 -14 -5 -25 -14 -25 -19 0 -5 -12 -11 -27 -14 -16 -3 -40 -9
-55 -13 -24 -5 -28 -3 -28 14 0 12 -4 24 -10 27 -5 3 -10 13 -10 21 0 22 -98
220 -115 234 -8 7 -15 19 -15 26 0 8 -4 14 -10 14 -5 0 -12 11 -16 24 -3 14
-14 32 -25 42 -10 9 -19 23 -19 29 0 7 -34 46 -75 87 -66 66 -75 79 -75 112 0
20 7 53 15 73 9 20 13 43 11 50 -3 7 0 26 6 41 6 15 15 50 19 77 4 28 13 73
19 100 20 93 49 240 56 285 3 19 7 41 10 48 6 21 24 4 24 -23z m-375 -755 c3
-5 17 -10 31 -10 29 0 30 -14 8 -70 -9 -22 -14 -50 -11 -61 3 -12 1 -33 -5
-48 -11 -25 -23 -93 -34 -191 -3 -25 -9 -54 -14 -65 -5 -11 -12 -42 -15 -70
-3 -27 -8 -72 -11 -100 -3 -27 -11 -56 -17 -63 -6 -8 -10 -28 -9 -45 2 -18 -5
-48 -15 -68 -17 -36 -32 -45 -108 -70 -22 -7 -44 -17 -49 -21 -6 -4 -22 -8
-37 -8 -15 0 -31 -4 -34 -10 -3 -5 -21 -10 -38 -10 -18 0 -45 -7 -61 -15 -42
-22 -325 -21 -367 1 l-30 15 4 142 c4 138 6 158 29 242 15 57 34 101 91 206
50 95 195 269 223 269 6 0 19 9 29 20 10 11 26 20 36 20 10 0 21 5 24 10 4 6
78 10 190 10 112 0 186 -4 190 -10z m279 -223 c21 -34 43 -71 49 -82 7 -11 14
-22 17 -25 3 -3 10 -16 16 -30 6 -14 21 -45 33 -68 11 -24 21 -50 21 -58 0 -8
4 -14 8 -14 4 0 15 -17 25 -37 16 -36 16 -39 -1 -53 -9 -9 -35 -22 -57 -29
-22 -8 -47 -19 -55 -26 -8 -7 -36 -18 -62 -26 -27 -7 -48 -17 -48 -21 0 -4 -9
-8 -19 -8 -11 0 -23 -4 -26 -10 -3 -5 -17 -10 -30 -10 -13 0 -27 -4 -30 -10
-3 -5 -18 -10 -32 -10 -28 0 -28 -2 -4 130 6 30 15 83 20 118 6 35 15 72 21
82 5 10 10 39 10 64 0 25 5 48 10 51 6 3 10 25 10 47 0 23 5 58 11 77 7 20 14
42 16 50 6 21 53 -29 97 -102z m506 -402 c0 -19 5 -37 10 -40 6 -3 10 -21 10
-40 0 -19 5 -37 10 -40 6 -3 10 -21 10 -40 0 -19 5 -37 10 -40 6 -3 10 -23 10
-43 0 -20 7 -45 15 -55 7 -11 11 -25 8 -33 -3 -8 2 -26 12 -40 16 -25 15 -54
-2 -54 -5 0 -14 12 -21 28 -23 51 -80 146 -91 150 -6 2 -11 12 -11 23 0 10 -4
19 -10 19 -5 0 -10 9 -10 19 0 11 -4 22 -9 25 -15 10 -82 156 -76 166 4 6 14
10 23 10 9 0 35 7 57 14 22 8 43 12 47 9 5 -2 8 -19 8 -38z m-1230 -890 c203
-63 318 -202 335 -407 13 -147 -42 -296 -142 -388 -103 -94 -217 -130 -415
-130 l-128 0 0 476 0 477 148 -6 c96 -3 166 -11 202 -22z"/>
<path d="M6221 4146 c-7 -8 -19 -12 -27 -9 -8 3 -14 0 -14 -6 0 -6 -9 -11 -19
-11 -10 0 -21 -7 -25 -15 -3 -8 -12 -15 -20 -15 -15 0 -86 -74 -86 -90 0 -6
27 7 59 30 33 22 62 40 65 40 3 0 30 12 61 26 41 20 65 25 91 21 47 -8 49 -10
48 -60 -2 -44 -38 -124 -67 -145 -9 -7 -24 -25 -32 -40 -17 -32 -99 -122 -111
-122 -5 0 -19 22 -32 48 -31 65 -46 89 -71 116 -11 12 -21 28 -21 34 0 17 -55
15 -70 -3 -10 -12 -8 -21 14 -49 14 -19 26 -39 26 -45 0 -6 5 -11 10 -11 6 0
10 -5 10 -10 0 -6 9 -29 19 -50 10 -22 24 -62 31 -90 7 -27 16 -53 21 -56 26
-16 -3 -56 -65 -90 -16 -9 -38 -25 -49 -35 -12 -10 -26 -19 -32 -19 -7 0 -20
-9 -30 -20 -10 -11 -23 -20 -30 -20 -6 0 -22 -11 -35 -25 -13 -14 -29 -25 -35
-25 -7 0 -20 -9 -30 -20 -10 -11 -23 -20 -30 -20 -7 0 -20 -9 -30 -20 -10 -11
-23 -20 -30 -20 -7 0 -20 -9 -30 -20 -10 -11 -30 -26 -44 -33 -50 -25 -76 -42
-92 -59 -9 -10 -23 -18 -32 -18 -9 0 -19 -5 -22 -10 -6 -10 -63 -50 -106 -76
-11 -6 -27 -18 -36 -26 -10 -8 -25 -18 -33 -21 -8 -4 -35 -23 -60 -42 -25 -19
-54 -39 -65 -44 -12 -5 -27 -16 -34 -25 -7 -9 -17 -16 -22 -16 -9 0 -95 -58
-168 -112 -20 -15 -45 -32 -56 -37 -11 -5 -29 -18 -39 -30 -11 -11 -24 -21
-31 -21 -7 0 -20 -9 -30 -20 -10 -11 -23 -20 -30 -20 -7 0 -27 -14 -44 -31
-31 -29 -33 -30 -52 -13 -10 9 -19 23 -19 31 0 7 -4 21 -9 31 -5 9 -13 28 -19
42 -5 14 -24 55 -41 92 -17 37 -31 73 -31 81 0 8 -7 20 -15 27 -8 7 -15 19
-15 26 0 8 -4 22 -10 32 -5 9 -22 46 -38 82 -16 36 -44 97 -62 135 -18 39 -43
95 -57 125 -14 30 -29 63 -34 72 -5 10 -9 26 -9 36 0 10 -4 22 -9 27 -5 6 -16
32 -24 59 -15 55 -27 65 -50 42 -11 -12 -13 -23 -7 -43 5 -16 13 -46 20 -68
13 -45 17 -56 54 -138 14 -32 26 -62 26 -67 0 -6 5 -19 10 -30 6 -11 15 -29
20 -40 6 -11 10 -27 10 -35 0 -8 5 -15 10 -15 6 0 10 -6 10 -13 0 -7 9 -32 20
-55 11 -22 20 -47 20 -55 0 -8 7 -20 15 -27 8 -7 15 -19 15 -26 0 -8 4 -22 9
-32 12 -23 52 -112 62 -139 20 -53 32 -79 40 -93 5 -8 12 -22 15 -30 3 -8 12
-29 20 -47 20 -44 19 -46 -27 -79 -22 -16 -53 -39 -69 -51 -15 -13 -31 -23
-35 -23 -4 0 -23 -12 -41 -27 -19 -16 -49 -40 -68 -55 -18 -16 -38 -28 -44
-28 -5 0 -27 -16 -48 -35 -21 -19 -42 -35 -47 -35 -5 0 -22 -13 -39 -30 -16
-16 -36 -30 -43 -30 -8 0 -20 -8 -27 -19 -7 -10 -26 -25 -43 -34 -16 -9 -43
-29 -58 -46 -16 -17 -34 -31 -41 -31 -7 0 -25 -13 -41 -30 -16 -16 -34 -30
-40 -30 -6 0 -26 -16 -45 -35 -19 -19 -40 -35 -47 -35 -6 0 -15 -5 -19 -11
-11 -18 65 -1 97 22 15 10 31 19 36 19 4 0 23 16 42 35 19 19 38 35 44 35 5 0
27 15 48 33 21 17 56 46 79 62 23 17 58 45 79 63 21 17 43 32 49 32 5 0 24 14
42 30 18 17 38 30 45 30 8 0 20 8 27 19 7 10 27 25 43 33 17 9 39 25 49 37 11
12 24 21 31 21 6 0 22 11 35 25 13 14 28 25 33 25 5 0 23 11 39 25 29 24 48
25 48 3 0 -6 12 -26 26 -45 21 -27 29 -32 40 -22 18 15 18 48 0 90 -14 33 -13
35 19 66 19 18 38 33 43 33 4 0 24 14 42 30 18 17 39 30 45 30 7 0 20 9 30 20
10 11 23 20 30 20 6 0 22 11 35 25 13 14 29 25 36 25 6 0 18 7 25 16 7 9 22
20 34 25 23 11 79 50 113 79 13 11 30 20 38 20 8 0 14 5 14 10 0 6 12 15 27
21 15 6 34 17 43 25 8 8 53 39 100 69 47 30 90 58 95 62 6 5 33 23 60 40 28
18 57 38 65 45 8 7 27 18 42 25 15 7 28 17 28 23 0 5 9 10 20 10 11 0 25 9 32
20 7 11 20 20 29 20 8 0 26 11 39 25 13 14 29 25 37 25 7 0 21 9 30 20 10 11
25 20 35 20 9 0 22 9 28 20 6 11 20 20 30 20 11 0 25 9 32 20 7 11 20 20 29
20 9 0 24 9 34 20 10 11 31 27 47 34 26 13 28 13 28 -4 0 -9 7 -23 15 -30 8
-7 15 -23 15 -36 0 -12 5 -26 10 -29 6 -3 10 -17 10 -30 0 -13 5 -27 10 -30 6
-3 10 -15 10 -26 0 -22 16 -54 44 -86 27 -32 56 -15 56 32 l0 35 54 0 c39 0
66 7 100 26 25 14 46 30 46 35 0 5 9 9 20 9 11 0 25 9 32 20 7 11 19 20 26 20
23 0 261 241 322 326 101 142 156 287 118 310 -18 11 -162 6 -166 -6 -2 -5
-15 -10 -28 -10 -13 0 -24 -4 -24 -10 0 -5 -6 -10 -13 -10 -18 0 -67 -24 -67
-32 0 -5 -9 -8 -20 -8 -11 0 -20 -4 -20 -10 0 -5 -16 -16 -35 -24 -19 -8 -35
-20 -35 -25 0 -6 -8 -11 -18 -11 -11 0 -27 -9 -37 -20 -10 -11 -23 -20 -30
-20 -7 0 -20 -9 -30 -20 -28 -31 -72 -47 -143 -54 -57 -5 -62 -4 -53 12 5 9
19 26 31 37 11 10 31 36 42 57 12 21 25 38 30 38 4 0 8 9 8 19 0 11 5 23 10
26 16 10 10 97 -9 130 -17 28 -22 30 -88 33 -52 2 -73 -1 -82 -12z m717 -164
c2 -13 -4 -32 -12 -41 -9 -10 -14 -20 -11 -23 3 -3 -1 -11 -10 -18 -8 -7 -15
-18 -15 -25 0 -6 -9 -20 -20 -30 -11 -10 -20 -23 -20 -30 0 -7 -9 -20 -21 -31
-12 -10 -28 -32 -36 -47 -15 -29 -250 -267 -264 -267 -5 0 -23 -13 -41 -29
-36 -31 -122 -81 -140 -81 -22 0 3 63 58 143 32 45 66 103 77 129 18 44 18 50
4 92 -15 43 -14 47 4 71 11 14 25 25 30 25 6 0 30 14 54 30 24 17 48 30 53 30
6 0 20 11 33 25 13 13 29 25 34 25 6 0 44 18 85 40 90 47 153 52 158 12z
m-638 -242 c0 -5 -6 -10 -13 -10 -8 0 -22 -9 -32 -20 -10 -11 -31 -27 -47 -35
-26 -12 -30 -12 -35 1 -6 17 28 54 52 54 8 0 15 5 15 10 0 6 14 10 30 10 17 0
30 -4 30 -10z m120 -35 c5 -14 7 -39 3 -57 -6 -33 -51 -105 -78 -128 -8 -7
-15 -18 -15 -24 0 -6 -9 -22 -20 -36 -11 -14 -20 -33 -20 -42 0 -41 -49 -3
-50 39 0 12 -4 25 -10 28 -5 3 -10 19 -10 36 0 16 -4 29 -10 29 -5 0 -10 11
-10 24 0 18 14 34 53 62 28 20 54 41 55 46 2 4 12 8 23 8 10 0 24 9 31 20 18
28 47 25 58 -5z"/>
<path d="M5565 4065 c-99 -57 -136 -125 -136 -255 -1 -77 2 -91 22 -114 12
-14 30 -26 38 -26 9 0 25 -7 35 -15 25 -19 85 -19 109 -1 10 8 27 12 37 9 12
-3 22 1 26 11 3 9 12 16 20 16 41 0 154 102 154 139 0 19 -3 22 -12 13 -7 -7
-20 -12 -30 -12 -10 0 -23 -9 -30 -20 -7 -11 -18 -20 -25 -20 -7 0 -31 -13
-55 -29 -50 -33 -129 -47 -175 -31 -29 11 -31 14 -35 78 -6 74 6 114 48 169
35 46 64 45 64 -2 0 -27 -9 -45 -40 -79 -22 -24 -40 -46 -40 -50 0 -3 15 -6
33 -6 25 0 41 9 67 38 50 54 60 75 60 134 0 48 -3 54 -27 66 -38 17 -62 14
-108 -13z"/>
<path d="M5121 3819 c-14 -9 -32 -23 -40 -32 -7 -10 -19 -17 -25 -17 -6 0 -20
-12 -30 -27 -18 -25 -19 -28 -3 -55 9 -17 17 -45 17 -63 0 -19 5 -37 10 -40 6
-3 10 -19 10 -34 0 -15 4 -31 9 -36 5 -6 11 -21 13 -35 2 -20 10 -26 33 -28
38 -3 90 41 79 67 -9 21 -16 190 -9 209 5 12 9 11 25 -6 11 -12 20 -28 20 -37
0 -8 4 -23 9 -33 5 -9 17 -37 27 -62 10 -25 22 -48 27 -51 10 -8 55 -1 83 13
19 9 20 13 9 44 -6 19 -17 40 -23 46 -7 7 -12 20 -12 30 0 25 -32 85 -68 128
-26 31 -34 34 -82 35 -31 0 -63 -6 -79 -16z"/>
<path d="M4610 3667 c-8 -7 -28 -32 -43 -56 -27 -40 -29 -51 -30 -145 -1 -114
11 -149 63 -186 25 -18 45 -22 107 -22 41 1 80 5 86 11 6 6 19 11 29 11 10 0
18 5 18 10 0 6 7 10 16 10 39 0 146 122 125 143 -7 7 -16 5 -31 -8 -11 -10
-20 -14 -20 -10 0 4 -8 1 -17 -7 -10 -9 -28 -19 -40 -22 -11 -4 -24 -13 -27
-21 -3 -8 -11 -15 -19 -15 -18 0 -67 -23 -67 -32 0 -5 -16 -8 -35 -8 -40 0
-85 25 -85 46 0 8 -4 14 -10 14 -23 0 -6 28 41 65 84 68 122 151 93 207 -14
26 -18 28 -77 28 -34 0 -69 -6 -77 -13z m80 -87 c0 -16 -3 -30 -8 -30 -4 0
-15 -18 -25 -40 -19 -45 -37 -45 -37 -1 0 26 10 53 33 89 16 23 37 13 37 -18z"/>
<path d="M3922 3376 c-15 -17 -33 -42 -40 -56 -16 -35 -13 -157 4 -171 8 -6
14 -17 14 -23 1 -6 18 -23 40 -38 30 -21 50 -27 92 -26 65 0 100 17 156 75 33
34 42 52 42 78 l0 35 -37 -21 c-20 -11 -50 -35 -67 -53 -17 -19 -45 -39 -62
-45 -28 -11 -34 -10 -62 16 -18 15 -32 31 -32 36 0 5 20 32 45 59 25 28 45 58
45 67 0 9 5 22 11 28 18 18 -18 62 -54 67 -52 8 -65 4 -95 -28z m78 -44 c0
-14 -25 -62 -32 -62 -15 0 -17 18 -3 30 8 7 15 19 15 26 0 8 5 14 10 14 6 0
10 -4 10 -8z"/>
<path d="M3633 3218 c-35 -38 -63 -92 -63 -123 0 -39 78 -95 133 -95 21 0 41
-8 51 -19 17 -19 17 -20 -13 -35 -16 -9 -41 -16 -54 -16 -29 0 -47 -18 -47
-47 0 -32 21 -38 76 -22 52 16 134 88 134 118 0 25 -37 61 -64 61 -11 0 -36 5
-55 11 -81 26 -81 26 -81 69 0 34 6 46 35 72 28 24 33 33 24 44 -18 22 -43 16
-76 -18z"/>
<path d="M3386 3190 c-47 -24 -76 -49 -76 -65 0 -22 -35 -43 -75 -47 -33 -2
-41 -8 -49 -31 -7 -20 -7 -34 2 -47 7 -11 12 -31 12 -46 0 -14 7 -33 16 -41
10 -11 14 -26 10 -44 -3 -17 0 -32 9 -39 8 -7 15 -24 15 -39 0 -54 43 -66 104
-30 35 20 47 51 26 64 -5 3 -10 15 -10 26 0 10 -4 27 -9 37 -34 66 -35 71 -21
127 7 30 17 55 22 55 4 0 8 7 8 14 0 18 61 66 83 66 25 0 31 19 11 41 -21 23
-29 23 -78 -1z"/>
<path d="M4300 2159 c-213 -55 -359 -196 -405 -391 -20 -87 -19 -171 5 -264
64 -247 283 -395 590 -396 349 -2 587 195 607 502 10 158 -39 291 -147 401
-75 76 -171 127 -287 153 -101 22 -267 20 -363 -5z m270 -29 c180 -29 321
-169 361 -359 17 -82 6 -251 -21 -329 -43 -123 -142 -223 -265 -268 -76 -27
-242 -25 -316 4 -127 50 -216 140 -259 264 -28 78 -38 247 -20 331 37 182 180
327 350 356 76 12 96 12 170 1z"/>
<path d="M5335 1875 l-70 -21 -3 -512 -2 -512 75 0 75 0 0 201 0 201 46 -41
c71 -62 139 -84 259 -84 79 0 112 4 156 22 156 60 240 185 242 356 1 183 -82
314 -240 376 -46 18 -79 22 -158 23 -119 0 -187 -22 -259 -85 l-45 -40 -3 69
-3 68 -70 -21z m448 -51 c64 -22 130 -89 158 -162 32 -81 32 -252 1 -332 -46
-118 -134 -180 -251 -180 -141 0 -237 86 -270 238 -33 155 13 328 104 398 71
54 169 68 258 38z"/>
<path d="M2393 1875 c-180 -39 -298 -174 -310 -353 -13 -186 82 -328 262 -393
87 -32 264 -32 355 0 68 23 160 77 160 92 0 13 -12 11 -35 -7 -70 -53 -269
-71 -369 -33 -107 40 -208 166 -223 278 l-6 41 363 0 363 0 -6 55 c-24 234
-278 380 -554 320z m223 -52 c95 -32 164 -123 189 -250 l7 -33 -291 0 -291 0
0 33 c0 96 87 217 180 250 60 21 145 21 206 0z"/>
<path d="M6433 1875 c-72 -16 -97 -28 -136 -64 -80 -73 -76 -176 9 -250 56
-50 146 -87 317 -132 165 -43 228 -73 253 -120 47 -91 -48 -159 -223 -159
-126 0 -233 40 -318 121 l-51 48 -44 -38 -45 -38 50 -32 c110 -70 242 -104
400 -105 98 -1 133 3 192 22 116 36 173 98 173 187 0 116 -69 164 -344 239
-93 25 -191 58 -218 73 -83 45 -100 115 -41 169 33 31 82 44 164 44 118 0 223
-44 297 -124 l40 -43 43 37 c24 21 39 41 36 48 -12 19 -109 69 -177 91 -126
40 -266 50 -377 26z"/>
<path d="M2993 1863 c2 -5 75 -174 162 -376 l158 -368 80 3 80 3 158 365 c88
201 159 369 159 373 0 5 -12 7 -27 5 -26 -3 -36 -23 -172 -341 -80 -185 -148
-334 -152 -330 -4 5 -71 158 -150 341 l-143 332 -78 0 c-44 0 -77 -3 -75 -7z"/>
</g>
</svg>
